<?xml version="1.0" encoding="UTF-8"?>
<svg xmlns="http://www.w3.org/2000/svg" width="1254" height="1254" viewBox="0 0 1254 1254" role="img" aria-label="FocusPilot Enso trademark black and white vector">
  <title>FocusPilot Enso Trademark - Black and White</title>
  <desc>Vector trace derived from docs/fp-ui/assets/focuspilot-enso-logo-trademark.png. Sphere highlight removed for trademark black-white use.</desc>
  <rect width="1254" height="1254" fill="#fff"/>
  <path fill="#000" d="
    M605 119h45v1H605z M589 120h77v1H589z M578 121h99v1H578z M568 122h119v1H568z M561 123h133v1H561z M554 124h147v1H554z M547 125h161v1H547z M541 126h173v1H541z M536 127h183v1H536z M530 128h195v1H530z M526 129h203v1H526z M521 130h213v1H521z M516 131h223v1H516z M512 132h231v1H512z M508 133h239v1H508z M504 134h247v1H504z M500 135h255v1H500z M496 136h263v1H496z M493 137h269v1H493z M489 138h277v1H489z M486 139h283v1H486z M482 140h291v1H482z M479 141h297v1H479z M476 142h303v1H476z M473 143h309v1H473z M470 144h315v1H470z M467 145h321v1H467z M464 146h327v1H464z M461 147h333v1H461z M458 148h339v1H458z M455 149h345v1H455z M453 150h349v1H453z M450 151h355v1H450z M447 152h361v1H447z M445 153h365v1H445z M442 154h371v1H442z M440 155h375v1H440z M437 156h381v1H437z M435 157h385v1H435z M433 158h389v1H433z M430 159h395v1H430z M428 160h399v1H428z M426 161h403v1H426z M423 162h409v1H423z M421 163h413v1H421z M419 164h417v1H419z M417 165h421v1H417z M415 166h425v1H415z M413 167h429v1H413z M410 168h435v1H410z M408 169h439v1H408z M406 170h443v1H406z M404 171h447v1H404z M402 172h451v1H402z M400 173h455v1H400z M398 174h459v1H398z M396 175h463v1H396z M395 176h465v1H395z M393 177h469v1H393z M391 178h473v1H391z M389 179h477v1H389z M387 180h481v1H387z M385 181h485v1H385z M383 182h489v1H383z M382 183h491v1H382z M380 184h495v1H380z M378 185h499v1H378z M376 186h503v1H376z M375 187h505v1H375z M373 188h509v1H373z M371 189h513v1H371z M370 190h515v1H370z M368 191h519v1H368z M366 192h523v1H366z M365 193h525v1H365z M363 194h529v1H363z M361 195h533v1H361z M360 196h535v1H360z M358 197h539v1H358z M357 198h541v1H357z M355 199h545v1H355z M354 200h547v1H354z M352 201h551v1H352z M351 202h553v1H351z M349 203h557v1H349z M348 204h559v1H348z M346 205h563v1H346z M345 206h565v1H345z M343 207h569v1H343z M342 208h571v1H342z M340 209h575v1H340z M339 210h577v1H339z M337 211h581v1H337z M336 212h583v1H336z M335 213h585v1H335z M333 214h589v1H333z M332 215h591v1H332z M331 216h593v1H331z M329 217h597v1H329z M328 218h599v1H328z M326 219h603v1H326z M325 220h605v1H325z M324 221h607v1H324z M323 222h609v1H323z M321 223h613v1H321z M320 224h615v1H320z M319 225h617v1H319z M317 226h621v1H317z M316 227h623v1H316z M315 228h625v1H315z M314 229h627v1H314z M312 230h631v1H312z M311 231h633v1H311z M310 232h635v1H310z M309 233h637v1H309z M307 234h641v1H307z M306 235h643v1H306z M305 236h645v1H305z M304 237h647v1H304z M303 238h649v1H303z M302 239h651v1H302z M300 240h655v1H300z M299 241h657v1H299z M298 242h659v1H298z M297 243h661v1H297z M296 244h663v1H296z M295 245h665v1H295z M294 246h667v1H294z M292 247h671v1H292z M291 248h673v1H291z M290 249h675v1H290z M289 250h677v1H289z M288 251h679v1H288z M287 252h681v1H287z M286 253h683v1H286z M285 254h685v1H285z M284 255h687v1H284z M283 256h689v1H283z M282 257h691v1H282z M281 258h693v1H281z M280 259h695v1H280z M278 260h699v1H278z M277 261h701v1H277z M276 262h703v1H276z M275 263h705v1H275z M274 264h707v1H274z M273 265h709v1H273z M272 266h711v1H272z M271 267h713v1H271z M270 268h715v1H270z M269 269h717v1H269z M268 270h719v1H268z M267 271h721v1H267z M266 272h723v1H266z M266 273h723v1H266z M265 274h725v1H265z M264 275h727v1H264z M263 276h352v1H263z M641 276h351v1H641z M262 277h341v1H262z M653 277h340v1H653z M261 278h330v1H261z M663 278h331v1H663z M260 279h324v1H260z M673 279h322v1H673z M259 280h317v1H259z M680 280h316v1H680z M258 281h313v1H258z M685 281h312v1H685z M257 282h309v1H257z M689 282h309v1H689z M256 283h305v1H256z M694 283h305v1H694z M255 284h300v1H255z M592 284h9v1H592z M640 284h8v1H640z M649 284h9v1H649z M678 284h2v1H678z M701 284h299v1H701z M254 285h298v1H254z
    M587 285h9v1H587z M642 285h5v1H642z M649 285h18v1H649z M669 285h2v1H669z M680 285h5v1H680z M704 285h297v1H704z M253 286h296v1H253z M579 286h11v1H579z M658 286h18v1H658z M684 286h5v1H684z M707 286h295v1H707z M253 287h292v1H253z M573 287h8v1H573z M582 287h1v1H582z M584 287h1v1H584z M668 287h13v1H668z M688 287h7v1H688z M710 287h292v1H710z M252 288h289v1H252z M568 288h10v1H568z M677 288h9v1H677z M692 288h7v1H692z M715 288h288v1H715z M251 289h286v1H251z M563 289h9v1H563z M681 289h9v1H681z M696 289h9v1H696z M718 289h286v1H718z M250 290h285v1H250z M558 290h10v1H558z M688 290h3v1H688z M702 290h6v1H702z M721 290h284v1H721z M249 291h282v1H249z M554 291h10v1H554z M706 291h7v1H706z M725 291h281v1H725z M248 292h280v1H248z M551 292h8v1H551z M711 292h7v1H711z M728 292h279v1H728z M247 293h279v1H247z M548 293h7v1H548z M714 293h2v1H714z M717 293h5v1H717z M731 293h277v1H731z M246 294h276v1H246z M545 294h6v1H545z M719 294h5v1H719z M734 294h275v1H734z M246 295h274v1H246z M543 295h4v1H543z M722 295h5v1H722z M737 295h272v1H737z M245 296h272v1H245z M539 296h5v1H539z M725 296h6v1H725z M740 296h270v1H740z M244 297h270v1H244z M538 297h2v1H538z M728 297h5v1H728z M742 297h269v1H742z M243 298h269v1H243z M731 298h5v1H731z M745 298h267v1H745z M242 299h267v1H242z M734 299h5v1H734z M748 299h265v1H748z M241 300h266v1H241z M737 300h5v1H737z M750 300h264v1H750z M240 301h265v1H240z M741 301h4v1H741z M753 301h262v1H753z M240 302h262v1H240z M743 302h4v1H743z M755 302h260v1H755z M239 303h261v1H239z M746 303h4v1H746z M757 303h259v1H757z M238 304h260v1H238z M748 304h4v1H748z M759 304h258v1H759z M237 305h259v1H237z M751 305h3v1H751z M762 305h256v1H762z M236 306h258v1H236z M753 306h4v1H753z M764 306h255v1H764z M236 307h256v1H236z M755 307h4v1H755z M766 307h253v1H766z M235 308h255v1H235z M758 308h3v1H758z M768 308h252v1H768z M234 309h254v1H234z M760 309h4v1H760z M770 309h251v1H770z M233 310h253v1H233z M762 310h4v1H762z M772 310h250v1H772z M232 311h252v1H232z M765 311h3v1H765z M774 311h249v1H774z M232 312h250v1H232z M767 312h3v1H767z M776 312h247v1H776z M231 313h250v1H231z M764 313h1v1H764z M769 313h3v1H769z M779 313h245v1H779z M230 314h249v1H230z M764 314h3v1H764z M771 314h3v1H771z M780 314h245v1H780z M229 315h248v1H229z M765 315h5v1H765z M773 315h3v1H773z M782 315h244v1H782z M229 316h246v1H229z M767 316h5v1H767z M775 316h3v1H775z M785 316h241v1H785z M228 317h246v1H228z M771 317h3v1H771z M776 317h4v1H776z M786 317h241v1H786z M227 318h245v1H227z M772 318h3v1H772z M778 318h4v1H778z M788 318h240v1H788z M226 319h244v1H226z M774 319h2v1H774z M780 319h4v1H780z M790 319h239v1H790z M225 320h244v1H225z M782 320h3v1H782z M792 320h238v1H792z M225 321h243v1H225z M779 321h2v1H779z M784 321h3v1H784z M793 321h237v1H793z M224 322h242v1H224z M780 322h3v1H780z M786 322h3v1H786z M795 322h236v1H795z M223 323h241v1H223z M782 323h3v1H782z M788 323h3v1H788z M797 323h235v1H797z M223 324h240v1H223z M784 324h3v1H784z M790 324h3v1H790z M798 324h234v1H798z M222 325h239v1H222z M786 325h3v1H786z M792 325h2v1H792z M800 325h233v1H800z M221 326h239v1H221z M787 326h4v1H787z M794 326h2v1H794z M802 326h232v1H802z M220 327h239v1H220z M789 327h3v1H789z M796 327h2v1H796z M803 327h232v1H803z M220 328h237v1H220z M791 328h3v1H791z M798 328h1v1H798z M805 328h230v1H805z M219 329h236v1H219z M793 329h2v1H793z M799 329h1v1H799z M807 329h229v1H807z M218 330h236v1H218z M795 330h2v1H795z M808 330h229v1H808z M217 331h235v1H217z M797 331h1v1H797z M810 331h228v1H810z
    M217 332h234v1H217z M674 332h5v1H674z M799 332h1v1H799z M812 332h226v1H812z M216 333h234v1H216z M675 333h11v1H675z M813 333h226v1H813z M215 334h233v1H215z M680 334h11v1H680z M815 334h225v1H815z M215 335h232v1H215z M685 335h10v1H685z M816 335h224v1H816z M214 336h231v1H214z M689 336h10v1H689z M818 336h223v1H818z M213 337h231v1H213z M695 337h8v1H695z M819 337h223v1H819z M213 338h229v1H213z M699 338h8v1H699z M821 338h221v1H821z M212 339h229v1H212z M703 339h7v1H703z M822 339h221v1H822z M211 340h229v1H211z M707 340h5v1H707z M824 340h220v1H824z M211 341h228v1H211z M713 341h3v1H713z M825 341h219v1H825z M210 342h227v1H210z M714 342h5v1H714z M826 342h219v1H826z M209 343h227v1H209z M718 343h2v1H718z M828 343h218v1H828z M209 344h226v1H209z M721 344h1v1H721z M829 344h217v1H829z M208 345h225v1H208z M830 345h217v1H830z M207 346h225v1H207z M627 346h28v1H627z M832 346h216v1H832z M207 347h224v1H207z M619 347h47v1H619z M833 347h215v1H833z M206 348h224v1H206z M610 348h65v1H610z M834 348h215v1H834z M205 349h223v1H205z M604 349h77v1H604z M836 349h214v1H836z M205 350h222v1H205z M596 350h89v1H596z M837 350h213v1H837z M204 351h222v1H204z M591 351h100v1H591z M838 351h213v1H838z M203 352h221v1H203z M587 352h109v1H587z M839 352h213v1H839z M203 353h221v1H203z M583 353h117v1H583z M841 353h211v1H841z M202 354h221v1H202z M577 354h127v1H577z M842 354h211v1H842z M201 355h220v1H201z M572 355h135v1H572z M843 355h211v1H843z M201 356h219v1H201z M568 356h143v1H568z M844 356h210v1H844z M200 357h219v1H200z M564 357h150v1H564z M845 357h210v1H845z M200 358h217v1H200z M561 358h156v1H561z M847 358h208v1H847z M199 359h217v1H199z M558 359h162v1H558z M848 359h208v1H848z M198 360h218v1H198z M556 360h167v1H556z M849 360h208v1H849z M198 361h216v1H198z M553 361h173v1H553z M850 361h207v1H850z M197 362h216v1H197z M551 362h178v1H551z M851 362h207v1H851z M197 363h215v1H197z M548 363h183v1H548z M852 363h206v1H852z M196 364h215v1H196z M545 364h189v1H545z M854 364h205v1H854z M195 365h214v1H195z M543 365h193v1H543z M855 365h205v1H855z M195 366h213v1H195z M541 366h198v1H541z M759 366h1v1H759z M856 366h204v1H856z M194 367h214v1H194z M539 367h202v1H539z M760 367h2v1H760z M857 367h204v1H857z M194 368h212v1H194z M537 368h207v1H537z M761 368h4v1H761z M858 368h203v1H858z M193 369h212v1H193z M535 369h211v1H535z M763 369h4v1H763z M859 369h203v1H859z M192 370h212v1H192z M533 370h215v1H533z M765 370h4v1H765z M860 370h203v1H860z M192 371h211v1H192z M531 371h219v1H531z M767 371h4v1H767z M861 371h202v1H861z M191 372h211v1H191z M529 372h224v1H529z M768 372h5v1H768z M862 372h202v1H862z M191 373h210v1H191z M527 373h228v1H527z M769 373h6v1H769z M863 373h201v1H863z M190 374h210v1H190z M525 374h232v1H525z M770 374h6v1H770z M864 374h201v1H864z M190 375h209v1H190z M523 375h236v1H523z M770 375h8v1H770z M865 375h200v1H865z M189 376h209v1H189z M521 376h240v1H521z M772 376h8v1H772z M866 376h200v1H866z M188 377h209v1H188z M520 377h243v1H520z M773 377h9v1H773z M867 377h200v1H867z M188 378h208v1H188z M518 378h247v1H518z M774 378h9v1H774z M868 378h199v1H868z M187 379h208v1H187z M516 379h250v1H516z M775 379h10v1H775z M869 379h199v1H869z M187 380h207v1H187z M514 380h254v1H514z M776 380h11v1H776z M870 380h198v1H870z M186 381h207v1H186z M513 381h258v1H513z M778 381h10v1H778z M871 381h198v1H871z M186 382h206v1H186z M511 382h262v1H511z M780 382h10v1H780z M872 382h197v1H872z M185 383h207v1H185z M510 383h264v1H510z M781 383h10v1H781z M873 383h197v1H873z M185 384h206v1H185z M508 384h268v1H508z M782 384h11v1H782z M874 384h196v1H874z M184 385h206v1H184z M507 385h271v1H507z
    M782 385h12v1H782z M875 385h196v1H875z M184 386h205v1H184z M506 386h274v1H506z M784 386h12v1H784z M876 386h195v1H876z M183 387h205v1H183z M504 387h278v1H504z M785 387h13v1H785z M877 387h195v1H877z M182 388h206v1H182z M503 388h281v1H503z M786 388h13v1H786z M878 388h195v1H878z M182 389h205v1H182z M501 389h299v1H501z M878 389h195v1H878z M181 390h205v1H181z M500 390h302v1H500z M879 390h195v1H879z M181 391h204v1H181z M498 391h305v1H498z M880 391h194v1H880z M180 392h205v1H180z M497 392h307v1H497z M881 392h194v1H881z M180 393h204v1H180z M496 393h310v1H496z M882 393h193v1H882z M179 394h204v1H179z M495 394h312v1H495z M883 394h193v1H883z M179 395h203v1H179z M494 395h314v1H494z M884 395h192v1H884z M178 396h204v1H178z M492 396h317v1H492z M885 396h192v1H885z M178 397h203v1H178z M491 397h320v1H491z M885 397h192v1H885z M177 398h203v1H177z M489 398h323v1H489z M886 398h192v1H886z M177 399h202v1H177z M488 399h326v1H488z M887 399h191v1H887z M176 400h203v1H176z M487 400h328v1H487z M888 400h191v1H888z M176 401h202v1H176z M486 401h330v1H486z M889 401h190v1H889z M175 402h202v1H175z M485 402h332v1H485z M890 402h190v1H890z M175 403h202v1H175z M484 403h334v1H484z M890 403h190v1H890z M174 404h202v1H174z M482 404h337v1H482z M891 404h190v1H891z M174 405h201v1H174z M481 405h340v1H481z M831 405h2v1H831z M892 405h189v1H892z M173 406h202v1H173z M480 406h342v1H480z M832 406h2v1H832z M893 406h189v1H893z M173 407h201v1H173z M479 407h344v1H479z M833 407h2v1H833z M894 407h188v1H894z M172 408h201v1H172z M478 408h346v1H478z M834 408h2v1H834z M885 408h1v1H885z M894 408h189v1H894z M172 409h200v1H172z M476 409h349v1H476z M835 409h2v1H835z M895 409h188v1H895z M172 410h200v1H172z M475 410h351v1H475z M836 410h1v1H836z M896 410h187v1H896z M171 411h200v1H171z M474 411h353v1H474z M837 411h2v1H837z M897 411h187v1H897z M171 412h199v1H171z M473 412h356v1H473z M838 412h2v1H838z M897 412h187v1H897z M170 413h199v1H170z M472 413h358v1H472z M839 413h2v1H839z M898 413h187v1H898z M170 414h198v1H170z M471 414h360v1H471z M840 414h2v1H840z M899 414h186v1H899z M169 415h198v1H169z M470 415h362v1H470z M841 415h2v1H841z M899 415h187v1H899z M169 416h197v1H169z M469 416h364v1H469z M842 416h2v1H842z M900 416h186v1H900z M168 417h198v1H168z M467 417h367v1H467z M891 417h2v1H891z M901 417h186v1H901z M168 418h197v1H168z M467 418h368v1H467z M892 418h1v1H892z M896 418h1v1H896z M902 418h185v1H902z M167 419h196v1H167z M466 419h370v1H466z M845 419h1v1H845z M893 419h1v1H893z M897 419h1v1H897z M902 419h186v1H902z M167 420h196v1H167z M465 420h372v1H465z M846 420h1v1H846z M894 420h1v1H894z M897 420h2v1H897z M903 420h185v1H903z M167 421h195v1H167z M464 421h374v1H464z M846 421h2v1H846z M894 421h2v1H894z M898 421h2v1H898z M904 421h184v1H904z M166 422h195v1H166z M463 422h376v1H463z M847 422h2v1H847z M895 422h1v1H895z M899 422h1v1H899z M905 422h184v1H905z M166 423h194v1H166z M462 423h378v1H462z M848 423h2v1H848z M896 423h1v1H896z M899 423h2v1H899z M905 423h184v1H905z M165 424h194v1H165z M461 424h380v1H461z M849 424h2v1H849z M896 424h2v1H896z M900 424h2v1H900z M906 424h184v1H906z M165 425h193v1H165z M460 425h382v1H460z M850 425h2v1H850z M897 425h2v1H897z M901 425h2v1H901z M907 425h183v1H907z M164 426h193v1H164z M460 426h383v1H460z M851 426h1v1H851z M898 426h2v1H898z M901 426h2v1H901z M907 426h184v1H907z M164 427h192v1H164z M459 427h385v1H459z M852 427h1v1H852z M899 427h1v1H899z M902 427h2v1H902z M908 427h183v1H908z M164 428h191v1H164z M458 428h387v1H458z M900 428h1v1H900z M903 428h2v1H903z M909 428h182v1H909z M163 429h192v1H163z
    M458 429h388v1H458z M854 429h1v1H854z M900 429h1v1H900z M903 429h3v1H903z M909 429h183v1H909z M163 430h191v1H163z M457 430h389v1H457z M854 430h2v1H854z M901 430h1v1H901z M904 430h2v1H904z M910 430h182v1H910z M162 431h191v1H162z M456 431h391v1H456z M855 431h2v1H855z M901 431h2v1H901z M905 431h2v1H905z M911 431h182v1H911z M162 432h190v1H162z M456 432h392v1H456z M856 432h1v1H856z M902 432h2v1H902z M905 432h3v1H905z M911 432h182v1H911z M161 433h190v1H161z M455 433h394v1H455z M857 433h1v1H857z M903 433h1v1H903z M906 433h2v1H906z M912 433h182v1H912z M161 434h189v1H161z M455 434h395v1H455z M858 434h1v1H858z M903 434h2v1H903z M907 434h2v1H907z M912 434h182v1H912z M161 435h188v1H161z M454 435h397v1H454z M858 435h2v1H858z M904 435h2v1H904z M907 435h3v1H907z M913 435h181v1H913z M160 436h189v1H160z M455 436h397v1H455z M860 436h1v1H860z M905 436h1v1H905z M908 436h2v1H908z M914 436h181v1H914z M160 437h188v1H160z M454 437h399v1H454z M860 437h2v1H860z M905 437h2v1H905z M909 437h2v1H909z M914 437h181v1H914z M159 438h188v1H159z M454 438h400v1H454z M861 438h2v1H861z M906 438h2v1H906z M909 438h3v1H909z M915 438h181v1H915z M159 439h187v1H159z M453 439h401v1H453z M862 439h1v1H862z M907 439h5v1H907z M916 439h180v1H916z M159 440h186v1H159z M453 440h402v1H453z M907 440h6v1H907z M916 440h180v1H916z M158 441h187v1H158z M452 441h404v1H452z M864 441h1v1H864z M908 441h6v1H908z M917 441h180v1H917z M158 442h186v1H158z M452 442h405v1H452z M864 442h1v1H864z M908 442h6v1H908z M917 442h180v1H917z M158 443h185v1H158z M452 443h406v1H452z M865 443h1v1H865z M909 443h6v1H909z M918 443h179v1H918z M157 444h186v1H157z M451 444h407v1H451z M866 444h1v1H866z M910 444h2v1H910z M913 444h2v1H913z M919 444h179v1H919z M157 445h185v1H157z M451 445h408v1H451z M867 445h1v1H867z M910 445h2v1H910z M914 445h2v1H914z M919 445h179v1H919z M156 446h186v1H156z M450 446h410v1H450z M867 446h1v1H867z M911 446h2v1H911z M914 446h3v1H914z M920 446h179v1H920z M156 447h185v1H156z M450 447h411v1H450z M868 447h1v1H868z M911 447h2v1H911z M915 447h2v1H915z M920 447h179v1H920z M156 448h184v1H156z M450 448h411v1H450z M912 448h2v1H912z M915 448h3v1H915z M921 448h178v1H921z M155 449h185v1H155z M449 449h413v1H449z M913 449h1v1H913z M916 449h2v1H916z M921 449h179v1H921z M155 450h184v1H155z M449 450h414v1H449z M913 450h2v1H913z M917 450h2v1H917z M922 450h178v1H922z M155 451h184v1H155z M448 451h416v1H448z M871 451h1v1H871z M914 451h1v1H914z M917 451h3v1H917z M922 451h178v1H922z M154 452h185v1H154z M448 452h416v1H448z M871 452h2v1H871z M914 452h2v1H914z M918 452h2v1H918z M923 452h178v1H923z M154 453h184v1H154z M448 453h417v1H448z M872 453h1v1H872z M915 453h1v1H915z M918 453h3v1H918z M924 453h177v1H924z M153 454h184v1H153z M449 454h417v1H449z M915 454h2v1H915z M919 454h2v1H919z M924 454h178v1H924z M153 455h184v1H153z M449 455h418v1H449z M916 455h1v1H916z M919 455h3v1H919z M925 455h177v1H925z M153 456h184v1H153z M449 456h418v1H449z M874 456h1v1H874z M916 456h2v1H916z M920 456h2v1H920z M925 456h177v1H925z M152 457h185v1H152z M448 457h420v1H448z M875 457h1v1H875z M917 457h2v1H917z M920 457h3v1H920z M926 457h177v1H926z M152 458h184v1H152z M448 458h421v1H448z M876 458h1v1H876z M917 458h2v1H917z M921 458h2v1H921z M926 458h177v1H926z M152 459h184v1H152z M448 459h422v1H448z M918 459h2v1H918z M921 459h3v1H921z M927 459h176v1H927z M151 460h185v1H151z M449 460h421v1H449z M919 460h1v1H919z M922 460h2v1H922z M927 460h177v1H927z M151 461h185v1H151z M449 461h422v1H449z
    M919 461h1v1H919z M922 461h3v1H922z M928 461h176v1H928z M151 462h184v1H151z M448 462h424v1H448z M919 462h2v1H919z M923 462h3v1H923z M928 462h176v1H928z M150 463h185v1H150z M448 463h424v1H448z M920 463h1v1H920z M923 463h3v1H923z M929 463h176v1H929z M150 464h184v1H150z M448 464h425v1H448z M920 464h2v1H920z M924 464h2v1H924z M929 464h176v1H929z M150 465h184v1H150z M449 465h425v1H449z M921 465h2v1H921z M924 465h3v1H924z M930 465h175v1H930z M149 466h185v1H149z M449 466h425v1H449z M921 466h2v1H921z M925 466h2v1H925z M930 466h176v1H930z M149 467h185v1H149z M448 467h427v1H448z M922 467h1v1H922z M925 467h3v1H925z M931 467h175v1H931z M149 468h185v1H149z M448 468h427v1H448z M923 468h1v1H923z M926 468h2v1H926z M931 468h175v1H931z M148 469h186v1H148z M445 469h2v1H445z M449 469h427v1H449z M923 469h1v1H923z M926 469h3v1H926z M932 469h175v1H932z M148 470h186v1H148z M445 470h2v1H445z M449 470h428v1H449z M923 470h2v1H923z M927 470h2v1H927z M932 470h175v1H932z M148 471h186v1H148z M445 471h2v1H445z M449 471h428v1H449z M924 471h1v1H924z M927 471h3v1H927z M933 471h174v1H933z M147 472h187v1H147z M445 472h2v1H445z M448 472h430v1H448z M924 472h2v1H924z M928 472h2v1H928z M933 472h175v1H933z M147 473h186v1H147z M444 473h3v1H444z M448 473h431v1H448z M925 473h1v1H925z M928 473h3v1H928z M933 473h175v1H933z M147 474h186v1H147z M444 474h3v1H444z M448 474h1v1H448z M450 474h429v1H450z M929 474h2v1H929z M934 474h174v1H934z M147 475h186v1H147z M444 475h5v1H444z M451 475h429v1H451z M929 475h3v1H929z M934 475h174v1H934z M146 476h187v1H146z M444 476h5v1H444z M451 476h430v1H451z M926 476h1v1H926z M929 476h3v1H929z M935 476h174v1H935z M146 477h187v1H146z M443 477h6v1H443z M451 477h430v1H451z M926 477h2v1H926z M930 477h3v1H930z M936 477h173v1H936z M146 478h187v1H146z M443 478h2v1H443z M446 478h3v1H446z M451 478h431v1H451z M927 478h1v1H927z M930 478h3v1H930z M936 478h173v1H936z M145 479h188v1H145z M443 479h2v1H443z M446 479h3v1H446z M451 479h431v1H451z M927 479h2v1H927z M931 479h2v1H931z M936 479h174v1H936z M145 480h189v1H145z M443 480h1v1H443z M446 480h2v1H446z M451 480h432v1H451z M928 480h1v1H928z M931 480h3v1H931z M937 480h173v1H937z M145 481h189v1H145z M443 481h1v1H443z M446 481h2v1H446z M452 481h431v1H452z M928 481h2v1H928z M932 481h3v1H932z M937 481h173v1H937z M144 482h190v1H144z M442 482h1v1H442z M446 482h2v1H446z M451 482h433v1H451z M932 482h3v1H932z M937 482h174v1H937z M144 483h190v1H144z M442 483h1v1H442z M446 483h1v1H446z M451 483h434v1H451z M929 483h2v1H929z M933 483h3v1H933z M938 483h173v1H938z M144 484h190v1H144z M442 484h1v1H442z M451 484h434v1H451z M930 484h1v1H930z M933 484h3v1H933z M938 484h173v1H938z M144 485h190v1H144z M441 485h2v1H441z M450 485h436v1H450z M930 485h2v1H930z M933 485h3v1H933z M939 485h172v1H939z M143 486h191v1H143z M441 486h1v1H441z M450 486h436v1H450z M931 486h1v1H931z M934 486h3v1H934z M939 486h173v1H939z M143 487h192v1H143z M441 487h1v1H441z M450 487h437v1H450z M931 487h1v1H931z M934 487h3v1H934z M939 487h173v1H939z M143 488h192v1H143z M440 488h1v1H440z M450 488h437v1H450z M931 488h2v1H931z M935 488h3v1H935z M940 488h172v1H940z M142 489h193v1H142z M440 489h1v1H440z M449 489h439v1H449z M932 489h1v1H932z M935 489h3v1H935z M940 489h173v1H940z M142 490h193v1H142z M449 490h440v1H449z M936 490h2v1H936z M941 490h172v1H941z M142 491h193v1H142z M449 491h440v1H449z M933 491h1v1H933z M936 491h3v1H936z M941 491h172v1H941z M142 492h194v1H142z M449 492h441v1H449z M936 492h3v1H936z
    M941 492h172v1H941z M141 493h195v1H141z M448 493h442v1H448z M933 493h2v1H933z M937 493h3v1H937z M942 493h172v1H942z M141 494h195v1H141z M448 494h442v1H448z M934 494h1v1H934z M937 494h3v1H937z M942 494h172v1H942z M141 495h195v1H141z M448 495h443v1H448z M934 495h2v1H934z M938 495h2v1H938z M943 495h171v1H943z M141 496h196v1H141z M448 496h443v1H448z M938 496h3v1H938z M943 496h171v1H943z M140 497h197v1H140z M447 497h445v1H447z M939 497h2v1H939z M943 497h172v1H943z M140 498h197v1H140z M447 498h446v1H447z M936 498h1v1H936z M939 498h2v1H939z M943 498h172v1H943z M140 499h198v1H140z M446 499h447v1H446z M936 499h1v1H936z M939 499h3v1H939z M944 499h171v1H944z M139 500h199v1H139z M446 500h447v1H446z M939 500h3v1H939z M944 500h172v1H944z M139 501h200v1H139z M445 501h449v1H445z M937 501h1v1H937z M940 501h3v1H940z M945 501h171v1H945z M139 502h200v1H139z M445 502h449v1H445z M937 502h1v1H937z M940 502h3v1H940z M945 502h171v1H945z M139 503h200v1H139z M444 503h451v1H444z M937 503h2v1H937z M941 503h2v1H941z M945 503h171v1H945z M139 504h201v1H139z M444 504h452v1H444z M937 504h2v1H937z M941 504h2v1H941z M946 504h170v1H946z M138 505h203v1H138z M443 505h453v1H443z M938 505h2v1H938z M941 505h3v1H941z M946 505h171v1H946z M138 506h203v1H138z M443 506h453v1H443z M938 506h2v1H938z M942 506h2v1H942z M946 506h171v1H946z M138 507h203v1H138z M442 507h455v1H442z M939 507h1v1H939z M942 507h3v1H942z M947 507h170v1H947z M138 508h204v1H138z M442 508h455v1H442z M939 508h2v1H939z M942 508h3v1H942z M947 508h170v1H947z M137 509h206v1H137z M441 509h457v1H441z M939 509h2v1H939z M943 509h2v1H943z M947 509h171v1H947z M137 510h206v1H137z M440 510h458v1H440z M940 510h1v1H940z M943 510h3v1H943z M948 510h170v1H948z M137 511h207v1H137z M440 511h459v1H440z M940 511h2v1H940z M944 511h2v1H944z M948 511h170v1H948z M137 512h207v1H137z M439 512h460v1H439z M940 512h2v1H940z M944 512h2v1H944z M948 512h170v1H948z M136 513h209v1H136z M438 513h461v1H438z M941 513h1v1H941z M944 513h3v1H944z M949 513h170v1H949z M136 514h209v1H136z M437 514h463v1H437z M941 514h2v1H941z M944 514h3v1H944z M949 514h170v1H949z M136 515h210v1H136z M436 515h464v1H436z M941 515h2v1H941z M945 515h3v1H945z M950 515h169v1H950z M136 516h211v1H136z M435 516h465v1H435z M941 516h2v1H941z M945 516h3v1H945z M950 516h169v1H950z M136 517h212v1H136z M435 517h466v1H435z M942 517h2v1H942z M946 517h2v1H946z M950 517h169v1H950z M135 518h214v1H135z M434 518h467v1H434z M942 518h2v1H942z M946 518h2v1H946z M950 518h170v1H950z M135 519h214v1H135z M433 519h469v1H433z M942 519h2v1H942z M946 519h3v1H946z M951 519h169v1H951z M135 520h215v1H135z M431 520h471v1H431z M943 520h2v1H943z M947 520h2v1H947z M951 520h169v1H951z M135 521h216v1H135z M430 521h472v1H430z M943 521h2v1H943z M947 521h2v1H947z M951 521h169v1H951z M134 522h218v1H134z M429 522h474v1H429z M943 522h2v1H943z M947 522h3v1H947z M952 522h169v1H952z M134 523h219v1H134z M428 523h475v1H428z M944 523h2v1H944z M947 523h3v1H947z M952 523h169v1H952z M134 524h220v1H134z M427 524h476v1H427z M944 524h2v1H944z M948 524h2v1H948z M952 524h169v1H952z M134 525h221v1H134z M425 525h479v1H425z M944 525h2v1H944z M948 525h2v1H948z M952 525h169v1H952z M134 526h222v1H134z M424 526h480v1H424z M944 526h2v1H944z M948 526h3v1H948z M953 526h168v1H953z M133 527h225v1H133z M423 527h482v1H423z M945 527h2v1H945z M949 527h2v1H949z M953 527h169v1H953z M133 528h226v1H133z M421 528h484v1H421z M945 528h2v1H945z M949 528h2v1H949z M953 528h169v1H953z M133 529h227v1H133z M419 529h486v1H419z
    M945 529h2v1H945z M949 529h3v1H949z M953 529h169v1H953z M133 530h229v1H133z M418 530h488v1H418z M946 530h2v1H946z M950 530h2v1H950z M954 530h168v1H954z M133 531h231v1H133z M415 531h491v1H415z M946 531h2v1H946z M950 531h2v1H950z M954 531h168v1H954z M132 532h234v1H132z M413 532h493v1H413z M946 532h2v1H946z M950 532h2v1H950z M954 532h169v1H954z M132 533h236v1H132z M411 533h496v1H411z M946 533h3v1H946z M950 533h3v1H950z M955 533h168v1H955z M132 534h239v1H132z M408 534h499v1H408z M947 534h2v1H947z M951 534h2v1H951z M955 534h168v1H955z M132 535h241v1H132z M404 535h503v1H404z M947 535h2v1H947z M951 535h2v1H951z M955 535h168v1H955z M132 536h247v1H132z M401 536h507v1H401z M947 536h2v1H947z M951 536h3v1H951z M955 536h168v1H955z M132 537h252v1H132z M394 537h514v1H394z M947 537h3v1H947z M951 537h3v1H951z M955 537h168v1H955z M131 538h777v1H131z M948 538h2v1H948z M952 538h2v1H952z M956 538h168v1H956z M131 539h778v1H131z M948 539h2v1H948z M952 539h2v1H952z M956 539h168v1H956z M131 540h778v1H131z M948 540h3v1H948z M952 540h3v1H952z M956 540h168v1H956z M131 541h779v1H131z M948 541h3v1H948z M952 541h3v1H952z M956 541h168v1H956z M131 542h779v1H131z M949 542h2v1H949z M953 542h2v1H953z M957 542h167v1H957z M131 543h779v1H131z M949 543h2v1H949z M953 543h2v1H953z M957 543h167v1H957z M130 544h780v1H130z M949 544h3v1H949z M953 544h2v1H953z M957 544h168v1H957z M130 545h781v1H130z M950 545h2v1H950z M953 545h3v1H953z M957 545h168v1H957z M130 546h781v1H130z M950 546h2v1H950z M953 546h3v1H953z M957 546h168v1H957z M130 547h781v1H130z M950 547h2v1H950z M954 547h2v1H954z M958 547h167v1H958z M130 548h781v1H130z M950 548h2v1H950z M954 548h2v1H954z M958 548h167v1H958z M130 549h782v1H130z M950 549h3v1H950z M954 549h2v1H954z M958 549h167v1H958z M129 550h783v1H129z M950 550h3v1H950z M954 550h3v1H954z M958 550h168v1H958z M129 551h783v1H129z M951 551h2v1H951z M954 551h3v1H954z M959 551h167v1H959z M129 552h784v1H129z M951 552h2v1H951z M955 552h2v1H955z M959 552h167v1H959z M129 553h784v1H129z M951 553h2v1H951z M955 553h2v1H955z M959 553h167v1H959z M129 554h784v1H129z M951 554h3v1H951z M955 554h2v1H955z M959 554h167v1H959z M129 555h784v1H129z M952 555h2v1H952z M955 555h3v1H955z M959 555h167v1H959z M129 556h785v1H129z M952 556h2v1H952z M955 556h3v1H955z M960 556h166v1H960z M129 557h785v1H129z M952 557h2v1H952z M956 557h2v1H956z M960 557h166v1H960z M128 558h786v1H128z M952 558h2v1H952z M956 558h2v1H956z M960 558h167v1H960z M128 559h786v1H128z M952 559h3v1H952z M956 559h2v1H956z M960 559h167v1H960z M128 560h787v1H128z M952 560h3v1H952z M956 560h2v1H956z M960 560h167v1H960z M128 561h787v1H128z M953 561h2v1H953z M956 561h3v1H956z M960 561h167v1H960z M128 562h787v1H128z M953 562h2v1H953z M956 562h3v1H956z M960 562h167v1H960z M128 563h787v1H128z M953 563h2v1H953z M957 563h2v1H957z M961 563h166v1H961z M128 564h787v1H128z M953 564h3v1H953z M957 564h2v1H957z M961 564h166v1H961z M127 565h789v1H127z M953 565h3v1H953z M957 565h3v1H957z M961 565h167v1H961z M127 566h789v1H127z M953 566h3v1H953z M957 566h3v1H957z M961 566h167v1H961z M127 567h789v1H127z M954 567h2v1H954z M957 567h3v1H957z M961 567h167v1H961z M127 568h789v1H127z M954 568h2v1H954z M958 568h2v1H958z M962 568h166v1H962z M127 569h789v1H127z M954 569h2v1H954z M958 569h2v1H958z M962 569h166v1H962z M127 570h790v1H127z M954 570h3v1H954z M958 570h2v1H958z M962 570h166v1H962z M127 571h790v1H127z M954 571h3v1H954z M958 571h2v1H958z M962 571h166v1H962z M127 572h790v1H127z
    M954 572h3v1H954z M958 572h3v1H958z M962 572h166v1H962z M127 573h790v1H127z M955 573h2v1H955z M958 573h3v1H958z M962 573h166v1H962z M127 574h791v1H127z M955 574h2v1H955z M958 574h3v1H958z M962 574h166v1H962z M126 575h792v1H126z M955 575h2v1H955z M958 575h3v1H958z M963 575h166v1H963z M126 576h792v1H126z M955 576h2v1H955z M959 576h2v1H959z M963 576h166v1H963z M126 577h792v1H126z M955 577h2v1H955z M959 577h2v1H959z M963 577h166v1H963z M126 578h792v1H126z M955 578h3v1H955z M959 578h3v1H959z M963 578h166v1H963z M126 579h792v1H126z M955 579h3v1H955z M959 579h3v1H959z M963 579h166v1H963z M126 580h793v1H126z M955 580h3v1H955z M959 580h3v1H959z M963 580h166v1H963z M126 581h793v1H126z M956 581h2v1H956z M959 581h3v1H959z M963 581h166v1H963z M126 582h793v1H126z M956 582h2v1H956z M959 582h3v1H959z M963 582h166v1H963z M126 583h793v1H126z M956 583h2v1H956z M960 583h2v1H960z M964 583h165v1H964z M126 584h793v1H126z M956 584h2v1H956z M960 584h2v1H960z M964 584h165v1H964z M126 585h794v1H126z M956 585h2v1H956z M960 585h2v1H960z M964 585h165v1H964z M125 586h795v1H125z M956 586h2v1H956z M960 586h2v1H960z M964 586h166v1H964z M125 587h795v1H125z M956 587h3v1H956z M960 587h2v1H960z M964 587h166v1H964z M125 588h795v1H125z M956 588h3v1H956z M960 588h3v1H960z M964 588h166v1H964z M125 589h795v1H125z M957 589h2v1H957z M960 589h3v1H960z M964 589h166v1H964z M125 590h795v1H125z M957 590h2v1H957z M960 590h3v1H960z M964 590h166v1H964z M125 591h795v1H125z M957 591h2v1H957z M960 591h3v1H960z M964 591h166v1H964z M125 592h796v1H125z M957 592h2v1H957z M960 592h3v1H960z M964 592h166v1H964z M125 593h796v1H125z M957 593h2v1H957z M960 593h3v1H960z M965 593h165v1H965z M125 594h796v1H125z M957 594h2v1H957z M960 594h3v1H960z M965 594h165v1H965z M125 595h796v1H125z M957 595h2v1H957z M961 595h2v1H961z M964 595h166v1H964z M125 596h796v1H125z M957 596h2v1H957z M961 596h2v1H961z M964 596h166v1H964z M125 597h796v1H125z M957 597h2v1H957z M961 597h2v1H961z M965 597h165v1H965z M125 598h796v1H125z M957 598h3v1H957z M961 598h2v1H961z M965 598h165v1H965z M125 599h796v1H125z M957 599h3v1H957z M961 599h3v1H961z M965 599h165v1H965z M125 600h796v1H125z M957 600h3v1H957z M961 600h3v1H961z M965 600h165v1H965z M125 601h797v1H125z M957 601h3v1H957z M961 601h3v1H961z M965 601h165v1H965z M124 602h798v1H124z M958 602h2v1H958z M961 602h3v1H961z M965 602h166v1H965z M124 603h798v1H124z M958 603h2v1H958z M961 603h3v1H961z M965 603h166v1H965z M124 604h798v1H124z M958 604h6v1H958z M965 604h166v1H965z M124 605h798v1H124z M958 605h6v1H958z M965 605h166v1H965z M124 606h798v1H124z M958 606h6v1H958z M965 606h166v1H965z M124 607h798v1H124z M958 607h6v1H958z M965 607h166v1H965z M124 608h798v1H124z M958 608h6v1H958z M965 608h166v1H965z M124 609h798v1H124z M958 609h6v1H958z M965 609h166v1H965z M124 610h798v1H124z M958 610h6v1H958z M965 610h166v1H965z M124 611h798v1H124z M958 611h6v1H958z M965 611h166v1H965z M124 612h798v1H124z M958 612h6v1H958z M965 612h166v1H965z M124 613h799v1H124z M958 613h6v1H958z M965 613h166v1H965z M124 614h799v1H124z M958 614h6v1H958z M965 614h166v1H965z M124 615h799v1H124z M958 615h6v1H958z M965 615h166v1H965z M124 616h799v1H124z M958 616h6v1H958z M966 616h165v1H966z M124 617h799v1H124z M958 617h6v1H958z M966 617h165v1H966z M124 618h799v1H124z M958 618h6v1H958z M966 618h165v1H966z M124 619h799v1H124z M958 619h6v1H958z M966 619h165v1H966z M124 620h799v1H124z M958 620h6v1H958z M966 620h165v1H966z M124 621h799v1H124z M958 621h6v1H958z
    M966 621h165v1H966z M124 622h799v1H124z M958 622h6v1H958z M966 622h165v1H966z M124 623h799v1H124z M958 623h6v1H958z M966 623h165v1H966z M124 624h799v1H124z M958 624h6v1H958z M966 624h165v1H966z M124 625h799v1H124z M958 625h6v1H958z M966 625h165v1H966z M124 626h799v1H124z M958 626h6v1H958z M966 626h165v1H966z M124 627h799v1H124z M958 627h6v1H958z M966 627h165v1H966z M124 628h799v1H124z M958 628h6v1H958z M965 628h166v1H965z M124 629h799v1H124z M958 629h6v1H958z M965 629h166v1H965z M124 630h799v1H124z M958 630h6v1H958z M965 630h166v1H965z M124 631h799v1H124z M958 631h6v1H958z M965 631h166v1H965z M124 632h799v1H124z M958 632h6v1H958z M965 632h166v1H965z M124 633h799v1H124z M958 633h6v1H958z M965 633h166v1H965z M124 634h799v1H124z M958 634h6v1H958z M965 634h166v1H965z M124 635h799v1H124z M958 635h6v1H958z M965 635h166v1H965z M124 636h799v1H124z M958 636h6v1H958z M965 636h166v1H965z M124 637h799v1H124z M958 637h6v1H958z M965 637h166v1H965z M124 638h799v1H124z M958 638h6v1H958z M965 638h166v1H965z M124 639h799v1H124z M958 639h6v1H958z M965 639h166v1H965z M124 640h219v1H124z M344 640h579v1H344z M957 640h7v1H957z M965 640h166v1H965z M124 641h219v1H124z M344 641h579v1H344z M957 641h7v1H957z M965 641h166v1H965z M124 642h219v1H124z M344 642h579v1H344z M957 642h7v1H957z M965 642h166v1H965z M124 643h219v1H124z M344 643h579v1H344z M957 643h7v1H957z M965 643h166v1H965z M124 644h219v1H124z M345 644h578v1H345z M957 644h7v1H957z M965 644h166v1H965z M124 645h219v1H124z M345 645h578v1H345z M957 645h7v1H957z M965 645h166v1H965z M124 646h219v1H124z M345 646h578v1H345z M957 646h174v1H957z M124 647h219v1H124z M345 647h578v1H345z M957 647h174v1H957z M125 648h219v1H125z M345 648h578v1H345z M957 648h173v1H957z M125 649h218v1H125z M345 649h577v1H345z M957 649h173v1H957z M125 650h219v1H125z M345 650h578v1H345z M957 650h173v1H957z M125 651h219v1H125z M345 651h578v1H345z M957 651h173v1H957z M125 652h219v1H125z M345 652h578v1H345z M957 652h173v1H957z M125 653h219v1H125z M346 653h576v1H346z M957 653h173v1H957z M125 654h219v1H125z M346 654h576v1H346z M956 654h174v1H956z M125 655h219v1H125z M346 655h576v1H346z M956 655h174v1H956z M125 656h219v1H125z M346 656h576v1H346z M956 656h174v1H956z M125 657h219v1H125z M346 657h576v1H346z M956 657h174v1H956z M125 658h219v1H125z M346 658h576v1H346z M956 658h174v1H956z M125 659h219v1H125z M346 659h576v1H346z M956 659h174v1H956z M125 660h220v1H125z M346 660h576v1H346z M956 660h174v1H956z M125 661h220v1H125z M347 661h575v1H347z M956 661h174v1H956z M125 662h220v1H125z M347 662h575v1H347z M955 662h175v1H955z M125 663h220v1H125z M347 663h575v1H347z M955 663h175v1H955z M126 664h219v1H126z M347 664h575v1H347z M955 664h174v1H955z M126 665h219v1H126z M347 665h574v1H347z M955 665h174v1H955z M126 666h219v1H126z M347 666h574v1H347z M955 666h174v1H955z M126 667h219v1H126z M347 667h574v1H347z M955 667h174v1H955z M126 668h219v1H126z M348 668h573v1H348z M955 668h174v1H955z M126 669h220v1H126z M348 669h573v1H348z M954 669h175v1H954z M126 670h220v1H126z M348 670h573v1H348z M954 670h175v1H954z M126 671h220v1H126z M348 671h573v1H348z M954 671h175v1H954z M126 672h220v1H126z M348 672h572v1H348z M954 672h175v1H954z M126 673h220v1H126z M349 673h571v1H349z M954 673h175v1H954z M126 674h220v1H126z M349 674h571v1H349z M954 674h175v1H954z M127 675h219v1H127z M349 675h571v1H349z M953 675h175v1H953z M127 676h220v1H127z M349 676h571v1H349z M953 676h175v1H953z M127 677h220v1H127z M349 677h571v1H349z M953 677h175v1H953z M127 678h220v1H127z M350 678h570v1H350z M953 678h175v1H953z M127 679h220v1H127z M350 679h569v1H350z
    M952 679h176v1H952z M127 680h220v1H127z M350 680h569v1H350z M952 680h176v1H952z M127 681h205v1H127z M333 681h14v1H333z M350 681h569v1H350z M952 681h176v1H952z M127 682h205v1H127z M333 682h15v1H333z M351 682h568v1H351z M952 682h176v1H952z M127 683h205v1H127z M333 683h15v1H333z M351 683h568v1H351z M952 683h176v1H952z M127 684h205v1H127z M333 684h15v1H333z M351 684h568v1H351z M952 684h176v1H952z M128 685h204v1H128z M333 685h15v1H333z M351 685h568v1H351z M951 685h176v1H951z M128 686h204v1H128z M334 686h14v1H334z M351 686h567v1H351z M951 686h176v1H951z M128 687h204v1H128z M334 687h14v1H334z M352 687h566v1H352z M951 687h176v1H951z M128 688h205v1H128z M334 688h15v1H334z M352 688h566v1H352z M951 688h176v1H951z M128 689h205v1H128z M334 689h15v1H334z M352 689h566v1H352z M951 689h176v1H951z M128 690h205v1H128z M335 690h14v1H335z M352 690h566v1H352z M950 690h177v1H950z M128 691h205v1H128z M335 691h14v1H335z M353 691h564v1H353z M950 691h177v1H950z M129 692h204v1H129z M335 692h15v1H335z M353 692h564v1H353z M950 692h176v1H950z M129 693h205v1H129z M335 693h15v1H335z M353 693h564v1H353z M950 693h176v1H950z M129 694h205v1H129z M336 694h14v1H336z M353 694h564v1H353z M949 694h177v1H949z M129 695h205v1H129z M336 695h14v1H336z M354 695h562v1H354z M949 695h177v1H949z M129 696h206v1H129z M336 696h14v1H336z M354 696h562v1H354z M949 696h177v1H949z M129 697h206v1H129z M336 697h15v1H336z M354 697h562v1H354z M949 697h177v1H949z M129 698h206v1H129z M337 698h14v1H337z M354 698h562v1H354z M949 698h177v1H949z M129 699h206v1H129z M337 699h14v1H337z M355 699h561v1H355z M948 699h178v1H948z M130 700h205v1H130z M337 700h14v1H337z M355 700h560v1H355z M948 700h177v1H948z M130 701h206v1H130z M338 701h13v1H338z M355 701h560v1H355z M948 701h177v1H948z M130 702h206v1H130z M338 702h14v1H338z M356 702h559v1H356z M947 702h178v1H947z M130 703h206v1H130z M339 703h13v1H339z M356 703h559v1H356z M947 703h178v1H947z M130 704h206v1H130z M339 704h13v1H339z M356 704h559v1H356z M947 704h178v1H947z M130 705h207v1H130z M340 705h13v1H340z M356 705h558v1H356z M947 705h178v1H947z M131 706h206v1H131z M341 706h12v1H341z M357 706h557v1H357z M946 706h178v1H946z M131 707h206v1H131z M341 707h12v1H341z M357 707h557v1H357z M946 707h178v1H946z M131 708h206v1H131z M341 708h12v1H341z M357 708h557v1H357z M946 708h178v1H946z M131 709h207v1H131z M341 709h13v1H341z M358 709h555v1H358z M946 709h178v1H946z M131 710h207v1H131z M342 710h12v1H342z M358 710h555v1H358z M945 710h179v1H945z M131 711h207v1H131z M342 711h12v1H342z M358 711h555v1H358z M945 711h179v1H945z M132 712h206v1H132z M342 712h12v1H342z M359 712h554v1H359z M945 712h178v1H945z M132 713h206v1H132z M342 713h13v1H342z M359 713h553v1H359z M944 713h179v1H944z M132 714h207v1H132z M343 714h12v1H343z M359 714h553v1H359z M944 714h179v1H944z M132 715h207v1H132z M343 715h12v1H343z M360 715h552v1H360z M944 715h179v1H944z M132 716h207v1H132z M343 716h13v1H343z M360 716h552v1H360z M943 716h180v1H943z M132 717h208v1H132z M344 717h12v1H344z M360 717h551v1H360z M943 717h180v1H943z M133 718h207v1H133z M344 718h12v1H344z M361 718h550v1H361z M943 718h179v1H943z M133 719h207v1H133z M344 719h12v1H344z M361 719h550v1H361z M943 719h179v1H943z M133 720h208v1H133z M345 720h12v1H345z M361 720h549v1H361z M942 720h180v1H942z M133 721h208v1H133z M345 721h11v1H345z M362 721h548v1H362z M942 721h180v1H942z M133 722h208v1H133z M345 722h12v1H345z M362 722h548v1H362z M942 722h180v1H942z M134 723h207v1H134z M346 723h11v1H346z M362 723h548v1H362z M941 723h180v1H941z M134 724h208v1H134z M346 724h12v1H346z M363 724h546v1H363z M941 724h180v1H941z
    M134 725h208v1H134z M346 725h12v1H346z M363 725h546v1H363z M941 725h180v1H941z M134 726h208v1H134z M347 726h11v1H347z M364 726h545v1H364z M940 726h181v1H940z M134 727h209v1H134z M347 727h12v1H347z M364 727h544v1H364z M940 727h181v1H940z M135 728h208v1H135z M347 728h12v1H347z M365 728h543v1H365z M940 728h180v1H940z M135 729h208v1H135z M348 729h11v1H348z M365 729h543v1H365z M939 729h181v1H939z M135 730h208v1H135z M348 730h12v1H348z M365 730h543v1H365z M939 730h181v1H939z M135 731h209v1H135z M349 731h11v1H349z M366 731h541v1H366z M939 731h181v1H939z M136 732h208v1H136z M349 732h11v1H349z M366 732h541v1H366z M938 732h181v1H938z M136 733h209v1H136z M350 733h11v1H350z M367 733h540v1H367z M938 733h181v1H938z M136 734h209v1H136z M350 734h11v1H350z M367 734h539v1H367z M938 734h181v1H938z M136 735h209v1H136z M350 735h11v1H350z M367 735h539v1H367z M937 735h182v1H937z M136 736h210v1H136z M351 736h11v1H351z M368 736h537v1H368z M937 736h182v1H937z M137 737h209v1H137z M351 737h11v1H351z M368 737h537v1H368z M937 737h181v1H937z M137 738h210v1H137z M351 738h12v1H351z M369 738h536v1H369z M936 738h182v1H936z M137 739h210v1H137z M352 739h11v1H352z M369 739h535v1H369z M936 739h182v1H936z M137 740h210v1H137z M352 740h2v1H352z M355 740h8v1H355z M370 740h4v1H370z M375 740h529v1H375z M935 740h183v1H935z M138 741h210v1H138z M352 741h2v1H352z M355 741h9v1H355z M370 741h4v1H370z M375 741h529v1H375z M935 741h182v1H935z M138 742h210v1H138z M353 742h1v1H353z M356 742h8v1H356z M371 742h3v1H371z M376 742h527v1H376z M935 742h182v1H935z M138 743h211v1H138z M354 743h1v1H354z M356 743h9v1H356z M371 743h4v1H371z M376 743h527v1H376z M934 743h183v1H934z M138 744h211v1H138z M354 744h1v1H354z M356 744h9v1H356z M371 744h4v1H371z M377 744h526v1H377z M934 744h183v1H934z M139 745h210v1H139z M357 745h8v1H357z M372 745h4v1H372z M377 745h525v1H377z M933 745h183v1H933z M139 746h211v1H139z M357 746h9v1H357z M372 746h4v1H372z M378 746h524v1H378z M933 746h183v1H933z M139 747h211v1H139z M358 747h8v1H358z M373 747h4v1H373z M378 747h523v1H378z M932 747h184v1H932z M139 748h212v1H139z M358 748h9v1H358z M373 748h4v1H373z M379 748h522v1H379z M932 748h184v1H932z M139 749h212v1H139z M358 749h9v1H358z M374 749h4v1H374z M379 749h522v1H379z M932 749h184v1H932z M140 750h211v1H140z M359 750h8v1H359z M374 750h4v1H374z M380 750h520v1H380z M931 750h184v1H931z M140 751h212v1H140z M359 751h9v1H359z M375 751h4v1H375z M380 751h520v1H380z M931 751h184v1H931z M140 752h212v1H140z M359 752h9v1H359z M375 752h4v1H375z M381 752h518v1H381z M931 752h184v1H931z M141 753h212v1H141z M360 753h9v1H360z M376 753h4v1H376z M381 753h518v1H381z M930 753h184v1H930z M141 754h212v1H141z M361 754h8v1H361z M376 754h4v1H376z M382 754h517v1H382z M930 754h184v1H930z M141 755h213v1H141z M361 755h8v1H361z M377 755h4v1H377z M383 755h5v1H383z M389 755h509v1H389z M929 755h185v1H929z M141 756h213v1H141z M361 756h9v1H361z M377 756h4v1H377z M383 756h5v1H383z M390 756h508v1H390z M929 756h185v1H929z M142 757h213v1H142z M361 757h9v1H361z M378 757h4v1H378z M384 757h5v1H384z M390 757h508v1H390z M928 757h185v1H928z M142 758h213v1H142z M362 758h9v1H362z M378 758h4v1H378z M384 758h5v1H384z M391 758h506v1H391z M928 758h185v1H928z M142 759h214v1H142z M362 759h9v1H362z M379 759h4v1H379z M385 759h5v1H385z M391 759h506v1H391z M928 759h185v1H928z M142 760h214v1H142z M363 760h9v1H363z M379 760h5v1H379z M385 760h5v1H385z M392 760h504v1H392z M927 760h186v1H927z M143 761h213v1H143z M363 761h9v1H363z M380 761h4v1H380z M386 761h5v1H386z
    M393 761h503v1H393z M927 761h185v1H927z M143 762h214v1H143z M363 762h10v1H363z M380 762h5v1H380z M386 762h5v1H386z M393 762h502v1H393z M926 762h186v1H926z M143 763h214v1H143z M364 763h9v1H364z M381 763h4v1H381z M387 763h5v1H387z M394 763h501v1H394z M926 763h186v1H926z M144 764h214v1H144z M364 764h10v1H364z M381 764h5v1H381z M388 764h4v1H388z M395 764h500v1H395z M925 764h186v1H925z M144 765h214v1H144z M365 765h9v1H365z M382 765h4v1H382z M388 765h5v1H388z M395 765h499v1H395z M925 765h186v1H925z M144 766h215v1H144z M365 766h9v1H365z M382 766h4v1H382z M389 766h4v1H389z M396 766h498v1H396z M924 766h187v1H924z M144 767h215v1H144z M366 767h9v1H366z M383 767h4v1H383z M389 767h5v1H389z M397 767h496v1H397z M924 767h187v1H924z M145 768h215v1H145z M366 768h9v1H366z M384 768h4v1H384z M390 768h5v1H390z M397 768h496v1H397z M923 768h187v1H923z M145 769h215v1H145z M367 769h9v1H367z M384 769h4v1H384z M390 769h5v1H390z M399 769h493v1H399z M923 769h187v1H923z M145 770h215v1H145z M368 770h8v1H368z M385 770h4v1H385z M391 770h5v1H391z M399 770h493v1H399z M922 770h188v1H922z M146 771h215v1H146z M368 771h2v1H368z M371 771h6v1H371z M385 771h4v1H385z M392 771h4v1H392z M400 771h491v1H400z M922 771h187v1H922z M146 772h215v1H146z M362 772h1v1H362z M371 772h6v1H371z M386 772h4v1H386z M392 772h5v1H392z M401 772h490v1H401z M921 772h188v1H921z M146 773h215v1H146z M362 773h1v1H362z M372 773h6v1H372z M387 773h4v1H387z M393 773h5v1H393z M401 773h489v1H401z M921 773h188v1H921z M147 774h215v1H147z M363 774h1v1H363z M372 774h6v1H372z M387 774h4v1H387z M393 774h5v1H393z M402 774h488v1H402z M920 774h188v1H920z M147 775h215v1H147z M363 775h2v1H363z M373 775h6v1H373z M388 775h4v1H388z M394 775h5v1H394z M404 775h486v1H404z M920 775h188v1H920z M147 776h215v1H147z M364 776h1v1H364z M373 776h6v1H373z M389 776h3v1H389z M395 776h4v1H395z M405 776h484v1H405z M919 776h189v1H919z M147 777h216v1H147z M364 777h2v1H364z M374 777h6v1H374z M389 777h4v1H389z M395 777h5v1H395z M405 777h483v1H405z M919 777h189v1H919z M148 778h215v1H148z M365 778h1v1H365z M375 778h5v1H375z M390 778h4v1H390z M396 778h4v1H396z M404 778h484v1H404z M918 778h189v1H918z M148 779h216v1H148z M365 779h2v1H365z M375 779h6v1H375z M390 779h4v1H390z M397 779h4v1H397z M404 779h484v1H404z M918 779h189v1H918z M148 780h216v1H148z M366 780h2v1H366z M376 780h5v1H376z M391 780h4v1H391z M397 780h4v1H397z M405 780h1v1H405z M407 780h480v1H407z M917 780h190v1H917z M149 781h216v1H149z M366 781h2v1H366z M377 781h5v1H377z M392 781h3v1H392z M398 781h4v1H398z M408 781h478v1H408z M917 781h189v1H917z M149 782h216v1H149z M367 782h2v1H367z M377 782h6v1H377z M392 782h4v1H392z M399 782h4v1H399z M409 782h477v1H409z M916 782h190v1H916z M149 783h217v1H149z M367 783h2v1H367z M377 783h6v1H377z M393 783h3v1H393z M399 783h4v1H399z M409 783h476v1H409z M916 783h190v1H916z M150 784h216v1H150z M368 784h2v1H368z M378 784h6v1H378z M394 784h3v1H394z M400 784h4v1H400z M410 784h475v1H410z M915 784h190v1H915z M150 785h217v1H150z M368 785h2v1H368z M378 785h6v1H378z M394 785h4v1H394z M401 785h4v1H401z M411 785h473v1H411z M915 785h190v1H915z M150 786h217v1H150z M369 786h2v1H369z M379 786h6v1H379z M395 786h4v1H395z M401 786h4v1H401z M412 786h472v1H412z M914 786h191v1H914z M151 787h217v1H151z M370 787h2v1H370z M380 787h6v1H380z M396 787h3v1H396z M402 787h4v1H402z M413 787h471v1H413z M914 787h190v1H914z M151 788h217v1H151z M370 788h2v1H370z M381 788h5v1H381z M397 788h3v1H397z
    M403 788h3v1H403z M413 788h470v1H413z M913 788h191v1H913z M151 789h218v1H151z M371 789h2v1H371z M382 789h5v1H382z M397 789h4v1H397z M403 789h4v1H403z M414 789h469v1H414z M912 789h192v1H912z M152 790h217v1H152z M371 790h2v1H371z M383 790h4v1H383z M398 790h3v1H398z M404 790h3v1H404z M415 790h468v1H415z M912 790h191v1H912z M152 791h218v1H152z M372 791h2v1H372z M383 791h5v1H383z M399 791h3v1H399z M405 791h3v1H405z M416 791h466v1H416z M911 791h192v1H911z M152 792h218v1H152z M372 792h2v1H372z M383 792h6v1H383z M399 792h4v1H399z M405 792h4v1H405z M416 792h466v1H416z M911 792h192v1H911z M153 793h218v1H153z M373 793h2v1H373z M384 793h5v1H384z M400 793h3v1H400z M406 793h3v1H406z M417 793h465v1H417z M910 793h192v1H910z M153 794h218v1H153z M374 794h2v1H374z M385 794h5v1H385z M401 794h3v1H401z M407 794h3v1H407z M418 794h464v1H418z M910 794h192v1H910z M153 795h219v1H153z M374 795h2v1H374z M385 795h5v1H385z M402 795h3v1H402z M408 795h3v1H408z M419 795h463v1H419z M909 795h193v1H909z M154 796h219v1H154z M375 796h2v1H375z M386 796h5v1H386z M402 796h3v1H402z M408 796h3v1H408z M420 796h462v1H420z M909 796h192v1H909z M154 797h219v1H154z M375 797h2v1H375z M386 797h6v1H386z M403 797h3v1H403z M409 797h3v1H409z M420 797h462v1H420z M908 797h193v1H908z M155 798h219v1H155z M376 798h2v1H376z M387 798h5v1H387z M404 798h3v1H404z M410 798h3v1H410z M421 798h461v1H421z M907 798h193v1H907z M155 799h219v1H155z M377 799h2v1H377z M387 799h6v1H387z M405 799h2v1H405z M411 799h2v1H411z M422 799h460v1H422z M907 799h193v1H907z M155 800h220v1H155z M377 800h2v1H377z M388 800h6v1H388z M406 800h2v1H406z M411 800h3v1H411z M423 800h459v1H423z M906 800h194v1H906z M156 801h220v1H156z M378 801h2v1H378z M389 801h5v1H389z M406 801h3v1H406z M412 801h3v1H412z M423 801h460v1H423z M905 801h194v1H905z M156 802h220v1H156z M379 802h1v1H379z M390 802h5v1H390z M407 802h3v1H407z M413 802h3v1H413z M424 802h459v1H424z M905 802h194v1H905z M156 803h221v1H156z M379 803h2v1H379z M390 803h2v1H390z M393 803h3v1H393z M407 803h3v1H407z M413 803h3v1H413z M425 803h458v1H425z M904 803h195v1H904z M157 804h221v1H157z M380 804h2v1H380z M393 804h3v1H393z M408 804h3v1H408z M414 804h3v1H414z M426 804h457v1H426z M903 804h195v1H903z M157 805h221v1H157z M381 805h2v1H381z M393 805h4v1H393z M409 805h3v1H409z M415 805h3v1H415z M427 805h457v1H427z M902 805h196v1H902z M158 806h221v1H158z M381 806h2v1H381z M394 806h4v1H394z M410 806h2v1H410z M416 806h2v1H416z M428 806h457v1H428z M902 806h195v1H902z M158 807h222v1H158z M382 807h2v1H382z M394 807h4v1H394z M410 807h3v1H410z M416 807h3v1H416z M428 807h458v1H428z M901 807h196v1H901z M158 808h222v1H158z M383 808h2v1H383z M395 808h4v1H395z M411 808h3v1H411z M417 808h3v1H417z M429 808h458v1H429z M899 808h198v1H899z M159 809h222v1H159z M383 809h2v1H383z M395 809h5v1H395z M412 809h3v1H412z M418 809h3v1H418z M430 809h459v1H430z M897 809h199v1H897z M159 810h223v1H159z M384 810h2v1H384z M396 810h4v1H396z M413 810h2v1H413z M419 810h2v1H419z M431 810h665v1H431z M159 811h223v1H159z M385 811h2v1H385z M397 811h1v1H397z M399 811h2v1H399z M414 811h2v1H414z M420 811h2v1H420z M432 811h664v1H432z M160 812h223v1H160z M386 812h2v1H386z M400 812h2v1H400z M414 812h3v1H414z M420 812h3v1H420z M433 812h2v1H433z M436 812h659v1H436z M160 813h224v1H160z M386 813h2v1H386z M400 813h3v1H400z M415 813h3v1H415z M421 813h3v1H421z M434 813h1v1H434z M437 813h658v1H437z M161 814h223v1H161z M387 814h2v1H387z
    M401 814h3v1H401z M416 814h3v1H416z M422 814h3v1H422z M438 814h656v1H438z M161 815h224v1H161z M388 815h2v1H388z M402 815h3v1H402z M417 815h2v1H417z M423 815h2v1H423z M438 815h656v1H438z M161 816h225v1H161z M388 816h2v1H388z M403 816h2v1H403z M418 816h2v1H418z M424 816h2v1H424z M439 816h655v1H439z M162 817h225v1H162z M389 817h2v1H389z M403 817h3v1H403z M419 817h2v1H419z M425 817h2v1H425z M439 817h654v1H439z M162 818h226v1H162z M390 818h2v1H390z M404 818h3v1H404z M420 818h2v1H420z M426 818h2v1H426z M440 818h3v1H440z M444 818h649v1H444z M163 819h225v1H163z M391 819h2v1H391z M405 819h3v1H405z M421 819h2v1H421z M426 819h3v1H426z M442 819h1v1H442z M445 819h647v1H445z M163 820h226v1H163z M391 820h3v1H391z M406 820h2v1H406z M422 820h2v1H422z M427 820h3v1H427z M443 820h1v1H443z M446 820h646v1H446z M164 821h226v1H164z M392 821h2v1H392z M406 821h3v1H406z M423 821h2v1H423z M428 821h2v1H428z M443 821h2v1H443z M447 821h644v1H447z M164 822h226v1H164z M393 822h2v1H393z M407 822h3v1H407z M423 822h3v1H423z M428 822h3v1H428z M444 822h2v1H444z M448 822h643v1H448z M164 823h227v1H164z M394 823h2v1H394z M408 823h3v1H408z M424 823h2v1H424z M429 823h3v1H429z M445 823h2v1H445z M449 823h642v1H449z M165 824h227v1H165z M395 824h2v1H395z M409 824h2v1H409z M425 824h2v1H425z M430 824h3v1H430z M446 824h2v1H446z M450 824h640v1H450z M165 825h228v1H165z M395 825h2v1H395z M410 825h2v1H410z M426 825h2v1H426z M431 825h3v1H431z M447 825h1v1H447z M451 825h406v1H451z M863 825h227v1H863z M166 826h228v1H166z M396 826h2v1H396z M411 826h2v1H411z M427 826h2v1H427z M432 826h3v1H432z M448 826h1v1H448z M452 826h402v1H452z M866 826h223v1H866z M166 827h229v1H166z M397 827h2v1H397z M412 827h2v1H412z M428 827h2v1H428z M433 827h3v1H433z M449 827h1v1H449z M453 827h400v1H453z M867 827h222v1H867z M167 828h228v1H167z M398 828h2v1H398z M413 828h1v1H413z M429 828h1v1H429z M434 828h3v1H434z M450 828h1v1H450z M454 828h398v1H454z M869 828h219v1H869z M167 829h229v1H167z M399 829h2v1H399z M414 829h1v1H414z M430 829h1v1H430z M435 829h3v1H435z M451 829h1v1H451z M455 829h396v1H455z M870 829h218v1H870z M167 830h230v1H167z M399 830h2v1H399z M415 830h1v1H415z M436 830h3v1H436z M452 830h1v1H452z M457 830h393v1H457z M870 830h218v1H870z M168 831h230v1H168z M400 831h2v1H400z M415 831h2v1H415z M437 831h3v1H437z M453 831h1v1H453z M458 831h391v1H458z M871 831h216v1H871z M168 832h230v1H168z M401 832h2v1H401z M416 832h2v1H416z M438 832h3v1H438z M454 832h1v1H454z M459 832h389v1H459z M872 832h215v1H872z M169 833h230v1H169z M402 833h2v1H402z M417 833h2v1H417z M439 833h2v1H439z M455 833h1v1H455z M460 833h388v1H460z M872 833h214v1H872z M169 834h231v1H169z M403 834h2v1H403z M418 834h2v1H418z M440 834h2v1H440z M456 834h1v1H456z M461 834h387v1H461z M872 834h214v1H872z M170 835h231v1H170z M404 835h2v1H404z M419 835h1v1H419z M441 835h3v1H441z M457 835h1v1H457z M462 835h385v1H462z M873 835h212v1H873z M170 836h232v1H170z M405 836h2v1H405z M420 836h1v1H420z M442 836h2v1H442z M458 836h1v1H458z M463 836h384v1H463z M873 836h212v1H873z M171 837h232v1H171z M406 837h2v1H406z M420 837h2v1H420z M443 837h2v1H443z M459 837h2v1H459z M464 837h383v1H464z M873 837h211v1H873z M171 838h233v1H171z M407 838h2v1H407z M421 838h2v1H421z M444 838h2v1H444z M466 838h381v1H466z M873 838h211v1H873z M172 839h232v1H172z M407 839h2v1H407z M445 839h2v1H445z M467 839h380v1H467z M873 839h210v1H873z M172 840h233v1H172z M408 840h2v1H408z
    M446 840h2v1H446z M468 840h379v1H468z M873 840h210v1H873z M172 841h234v1H172z M409 841h2v1H409z M447 841h2v1H447z M464 841h1v1H464z M469 841h378v1H469z M872 841h211v1H872z M173 842h234v1H173z M410 842h2v1H410z M448 842h2v1H448z M465 842h1v1H465z M471 842h376v1H471z M872 842h210v1H872z M173 843h235v1H173z M411 843h2v1H411z M449 843h2v1H449z M467 843h1v1H467z M472 843h376v1H472z M872 843h210v1H872z M174 844h229v1H174z M404 844h5v1H404z M412 844h2v1H412z M450 844h3v1H450z M473 844h375v1H473z M871 844h210v1H871z M174 845h229v1H174z M405 845h5v1H405z M413 845h2v1H413z M451 845h3v1H451z M474 845h375v1H474z M871 845h210v1H871z M175 846h229v1H175z M406 846h5v1H406z M414 846h2v1H414z M452 846h3v1H452z M475 846h374v1H475z M870 846h210v1H870z M175 847h230v1H175z M407 847h5v1H407z M415 847h2v1H415z M454 847h2v1H454z M477 847h373v1H477z M869 847h211v1H869z M176 848h230v1H176z M408 848h5v1H408z M416 848h2v1H416z M455 848h2v1H455z M478 848h373v1H478z M868 848h211v1H868z M176 849h231v1H176z M409 849h4v1H409z M417 849h2v1H417z M456 849h2v1H456z M479 849h373v1H479z M867 849h212v1H867z M177 850h231v1H177z M410 850h4v1H410z M418 850h2v1H418z M457 850h2v1H457z M481 850h373v1H481z M865 850h213v1H865z M177 851h232v1H177z M411 851h4v1H411z M419 851h2v1H419z M458 851h2v1H458z M482 851h374v1H482z M863 851h215v1H863z M178 852h231v1H178z M412 852h4v1H412z M420 852h2v1H420z M459 852h2v1H459z M483 852h594v1H483z M178 853h232v1H178z M413 853h5v1H413z M421 853h2v1H421z M460 853h2v1H460z M480 853h1v1H480z M485 853h592v1H485z M179 854h232v1H179z M414 854h5v1H414z M422 854h2v1H422z M462 854h2v1H462z M486 854h590v1H486z M179 855h233v1H179z M415 855h5v1H415z M423 855h2v1H423z M463 855h2v1H463z M487 855h589v1H487z M180 856h233v1H180z M416 856h5v1H416z M424 856h2v1H424z M464 856h2v1H464z M489 856h586v1H489z M180 857h234v1H180z M417 857h5v1H417z M425 857h2v1H425z M465 857h2v1H465z M490 857h585v1H490z M181 858h234v1H181z M418 858h5v1H418z M426 858h2v1H426z M467 858h2v1H467z M492 858h582v1H492z M181 859h235v1H181z M419 859h5v1H419z M427 859h3v1H427z M468 859h2v1H468z M493 859h328v1H493z M826 859h248v1H826z M182 860h235v1H182z M420 860h5v1H420z M428 860h3v1H428z M469 860h3v1H469z M494 860h325v1H494z M828 860h245v1H828z M182 861h236v1H182z M421 861h5v1H421z M430 861h2v1H430z M470 861h3v1H470z M496 861h321v1H496z M830 861h243v1H830z M183 862h236v1H183z M422 862h5v1H422z M431 862h2v1H431z M472 862h2v1H472z M497 862h319v1H497z M831 862h241v1H831z M184 863h236v1H184z M423 863h5v1H423z M432 863h2v1H432z M473 863h2v1H473z M499 863h317v1H499z M832 863h239v1H832z M184 864h237v1H184z M424 864h5v1H424z M433 864h2v1H433z M475 864h2v1H475z M500 864h315v1H500z M832 864h239v1H832z M185 865h237v1H185z M425 865h5v1H425z M434 865h2v1H434z M476 865h2v1H476z M502 865h312v1H502z M833 865h237v1H833z M185 866h238v1H185z M427 866h4v1H427z M435 866h3v1H435z M477 866h3v1H477z M503 866h311v1H503z M833 866h237v1H833z M186 867h238v1H186z M428 867h5v1H428z M436 867h3v1H436z M478 867h3v1H478z M505 867h309v1H505z M833 867h236v1H833z M186 868h239v1H186z M429 868h5v1H429z M438 868h2v1H438z M480 868h3v1H480z M507 868h306v1H507z M833 868h236v1H833z M187 869h240v1H187z M430 869h5v1H430z M439 869h2v1H439z M481 869h3v1H481z M509 869h304v1H509z M833 869h235v1H833z M187 870h241v1H187z M431 870h5v1H431z M440 870h3v1H440z M483 870h2v1H483z M510 870h303v1H510z M833 870h235v1H833z M188 871h241v1H188z M433 871h4v1H433z M441 871h3v1H441z
    M485 871h2v1H485z M512 871h3v1H512z M517 871h296v1H517z M833 871h234v1H833z M188 872h242v1H188z M434 872h4v1H434z M443 872h2v1H443z M486 872h2v1H486z M513 872h3v1H513z M519 872h295v1H519z M833 872h234v1H833z M189 873h242v1H189z M435 873h5v1H435z M444 873h2v1H444z M488 873h2v1H488z M515 873h3v1H515z M521 873h293v1H521z M832 873h234v1H832z M190 874h242v1H190z M436 874h5v1H436z M445 874h2v1H445z M489 874h3v1H489z M518 874h2v1H518z M523 874h292v1H523z M832 874h233v1H832z M190 875h243v1H190z M437 875h5v1H437z M446 875h3v1H446z M490 875h3v1H490z M519 875h3v1H519z M524 875h291v1H524z M831 875h234v1H831z M191 876h244v1H191z M438 876h5v1H438z M448 876h2v1H448z M492 876h3v1H492z M521 876h2v1H521z M526 876h290v1H526z M830 876h234v1H830z M191 877h245v1H191z M440 877h4v1H440z M449 877h2v1H449z M494 877h2v1H494z M522 877h3v1H522z M528 877h289v1H528z M829 877h235v1H829z M192 878h245v1H192z M441 878h4v1H441z M450 878h3v1H450z M495 878h3v1H495z M530 878h289v1H530z M828 878h235v1H828z M192 879h246v1H192z M442 879h5v1H442z M451 879h3v1H451z M498 879h2v1H498z M527 879h2v1H527z M532 879h290v1H532z M825 879h238v1H825z M193 880h246v1H193z M444 880h4v1H444z M453 880h2v1H453z M499 880h3v1H499z M528 880h3v1H528z M534 880h528v1H534z M194 881h246v1H194z M445 881h4v1H445z M454 881h3v1H454z M501 881h3v1H501z M530 881h3v1H530z M536 881h525v1H536z M194 882h248v1H194z M446 882h5v1H446z M456 882h2v1H456z M502 882h3v1H502z M532 882h3v1H532z M538 882h523v1H538z M195 883h248v1H195z M448 883h4v1H448z M457 883h3v1H457z M504 883h2v1H504z M534 883h2v1H534z M540 883h249v1H540z M794 883h266v1H794z M195 884h249v1H195z M449 884h5v1H449z M458 884h3v1H458z M507 884h2v1H507z M537 884h2v1H537z M542 884h245v1H542z M796 884h264v1H796z M196 885h249v1H196z M450 885h5v1H450z M460 885h2v1H460z M508 885h1v1H508z M538 885h3v1H538z M544 885h242v1H544z M797 885h262v1H797z M197 886h250v1H197z M452 886h4v1H452z M461 886h3v1H461z M547 886h238v1H547z M798 886h260v1H798z M197 887h251v1H197z M453 887h5v1H453z M463 887h2v1H463z M512 887h2v1H512z M549 887h236v1H549z M798 887h260v1H798z M198 888h251v1H198z M454 888h5v1H454z M464 888h3v1H464z M513 888h3v1H513z M545 888h2v1H545z M552 888h233v1H552z M799 888h258v1H799z M198 889h253v1H198z M456 889h5v1H456z M465 889h3v1H465z M515 889h1v1H515z M547 889h2v1H547z M554 889h230v1H554z M799 889h258v1H799z M199 890h253v1H199z M457 890h5v1H457z M467 890h3v1H467z M556 890h228v1H556z M799 890h257v1H799z M200 891h253v1H200z M458 891h5v1H458z M468 891h4v1H468z M559 891h226v1H559z M799 891h256v1H799z M200 892h255v1H200z M460 892h5v1H460z M470 892h3v1H470z M562 892h223v1H562z M798 892h257v1H798z M201 893h255v1H201z M461 893h6v1H461z M472 893h2v1H472z M564 893h221v1H564z M798 893h256v1H798z M201 894h256v1H201z M463 894h5v1H463z M473 894h3v1H473z M567 894h219v1H567z M797 894h257v1H797z M202 895h257v1H202z M464 895h5v1H464z M475 895h3v1H475z M569 895h218v1H569z M796 895h257v1H796z M203 896h257v1H203z M465 896h6v1H465z M476 896h3v1H476z M573 896h215v1H573z M795 896h257v1H795z M203 897h259v1H203z M467 897h6v1H467z M478 897h3v1H478z M576 897h476v1H576z M204 898h259v1H204z M469 898h5v1H469z M479 898h4v1H479z M579 898h472v1H579z M205 899h260v1H205z M470 899h6v1H470z M481 899h3v1H481z M582 899h169v1H582z M754 899h296v1H754z M205 900h261v1H205z M471 900h6v1H471z M483 900h3v1H483z M586 900h162v1H586z M752 900h298v1H752z M206 901h261v1H206z M473 901h6v1H473z M484 901h4v1H484z M589 901h156v1H589z
    M750 901h299v1H750z M207 902h262v1H207z M475 902h5v1H475z M486 902h4v1H486z M593 902h149v1H593z M748 902h300v1H748z M207 903h264v1H207z M476 903h6v1H476z M488 903h3v1H488z M596 903h142v1H596z M746 903h302v1H746z M208 904h264v1H208z M478 904h6v1H478z M489 904h4v1H489z M600 904h135v1H600z M744 904h303v1H744z M209 905h265v1H209z M480 905h6v1H480z M491 905h4v1H491z M604 905h127v1H604z M742 905h304v1H742z M209 906h266v1H209z M481 906h6v1H481z M493 906h4v1H493z M608 906h118v1H608z M739 906h307v1H739z M210 907h267v1H210z M483 907h6v1H483z M495 907h4v1H495z M614 907h108v1H614z M737 907h308v1H737z M211 908h267v1H211z M485 908h6v1H485z M497 908h4v1H497z M618 908h98v1H618z M735 908h309v1H735z M211 909h269v1H211z M486 909h7v1H486z M499 909h4v1H499z M624 909h86v1H624z M732 909h312v1H732z M212 910h270v1H212z M488 910h6v1H488z M501 910h4v1H501z M630 910h74v1H630z M730 910h313v1H730z M213 911h271v1H213z M490 911h7v1H490z M503 911h4v1H503z M639 911h58v1H639z M727 911h315v1H727z M213 912h272v1H213z M492 912h6v1H492z M505 912h4v1H505z M651 912h33v1H651z M685 912h2v1H685z M724 912h318v1H724z M214 913h273v1H214z M494 913h6v1H494z M506 913h5v1H506z M721 913h320v1H721z M215 914h274v1H215z M496 914h6v1H496z M509 914h4v1H509z M718 914h322v1H718z M215 915h276v1H215z M498 915h7v1H498z M511 915h4v1H511z M716 915h36v1H716z M755 915h285v1H755z M216 916h276v1H216z M500 916h7v1H500z M513 916h5v1H513z M712 916h38v1H712z M753 916h286v1H753z M217 917h277v1H217z M502 917h7v1H502z M515 917h5v1H515z M708 917h39v1H708z M751 917h287v1H751z M217 918h279v1H217z M504 918h7v1H504z M518 918h4v1H518z M704 918h15v1H704z M723 918h22v1H723z M749 918h289v1H749z M218 919h280v1H218z M505 919h8v1H505z M520 919h4v1H520z M700 919h14v1H700z M720 919h22v1H720z M746 919h291v1H746z M219 920h282v1H219z M508 920h7v1H508z M522 920h5v1H522z M696 920h14v1H696z M716 920h24v1H716z M744 920h292v1H744z M220 921h282v1H220z M510 921h8v1H510z M524 921h5v1H524z M692 921h13v1H692z M713 921h23v1H713z M741 921h294v1H741z M220 922h284v1H220z M512 922h8v1H512z M527 922h5v1H527z M685 922h15v1H685z M708 922h26v1H708z M738 922h297v1H738z M221 923h286v1H221z M514 923h8v1H514z M529 923h6v1H529z M682 923h12v1H682z M704 923h23v1H704z M729 923h1v1H729z M736 923h298v1H736z M222 924h287v1H222z M517 924h8v1H517z M532 924h5v1H532z M682 924h3v1H682z M699 924h25v1H699z M733 924h300v1H733z M223 925h288v1H223z M519 925h8v1H519z M534 925h6v1H534z M695 925h26v1H695z M730 925h302v1H730z M223 926h290v1H223z M521 926h9v1H521z M537 926h6v1H537z M690 926h24v1H690z M727 926h305v1H727z M224 927h291v1H224z M524 927h9v1H524z M540 927h6v1H540z M685 927h26v1H685z M724 927h307v1H724z M225 928h293v1H225z M526 928h10v1H526z M543 928h6v1H543z M676 928h30v1H676z M722 928h308v1H722z M225 929h295v1H225z M529 929h9v1H529z M546 929h7v1H546z M667 929h35v1H667z M718 929h312v1H718z M226 930h297v1H226z M532 930h9v1H532z M549 930h7v1H549z M657 930h34v1H657z M716 930h313v1H716z M227 931h298v1H227z M534 931h10v1H534z M552 931h7v1H552z M623 931h62v1H623z M712 931h316v1H712z M228 932h300v1H228z M537 932h10v1H537z M556 932h7v1H556z M623 932h51v1H623z M708 932h319v1H708z M229 933h301v1H229z M540 933h10v1H540z M559 933h8v1H559z M635 933h1v1H635z M638 933h15v1H638z M705 933h321v1H705z M229 934h304v1H229z M542 934h11v1H542z M563 934h8v1H563z M701 934h325v1H701z M230 935h306v1H230z M545 935h12v1H545z M567 935h8v1H567z M696 935h329v1H696z M231 936h308v1H231z M550 936h10v1H550z M570 936h11v1H570z
    M691 936h14v1H691z M710 936h314v1H710z M232 937h310v1H232z M552 937h13v1H552z M574 937h12v1H574z M686 937h15v1H686z M706 937h317v1H706z M232 938h312v1H232z M555 938h14v1H555z M579 938h12v1H579z M680 938h16v1H680z M702 938h321v1H702z M233 939h314v1H233z M559 939h14v1H559z M585 939h14v1H585z M674 939h17v1H674z M697 939h325v1H697z M234 940h318v1H234z M562 940h16v1H562z M590 940h17v1H590z M666 940h19v1H666z M692 940h329v1H692z M235 941h320v1H235z M566 941h17v1H566z M596 941h22v1H596z M651 941h28v1H651z M687 941h333v1H687z M236 942h323v1H236z M571 942h18v1H571z M605 942h62v1H605z M669 942h1v1H669z M682 942h337v1H682z M236 943h326v1H236z M576 943h19v1H576z M614 943h46v1H614z M675 943h344v1H675z M237 944h329v1H237z M581 944h22v1H581z M668 944h350v1H668z M238 945h333v1H238z M586 945h25v1H586z M658 945h359v1H658z M239 946h336v1H239z M591 946h54v1H591z M646 946h370v1H646z M240 947h339v1H240z M598 947h417v1H598z M240 948h345v1H240z M607 948h68v1H607z M682 948h333v1H682z M241 949h350v1H241z M615 949h48v1H615z M679 949h335v1H679z M242 950h355v1H242z M669 950h344v1H669z M243 951h363v1H243z M661 951h351v1H661z M244 952h375v1H244z M620 952h1v1H620z M642 952h369v1H642z M245 953h765v1H245z M246 954h763v1H246z M246 955h763v1H246z M247 956h761v1H247z M248 957h759v1H248z M249 958h757v1H249z M250 959h755v1H250z M251 960h753v1H251z M252 961h751v1H252z M253 962h749v1H253z M253 963h749v1H253z M254 964h747v1H254z M255 965h745v1H255z M256 966h743v1H256z M257 967h741v1H257z M258 968h739v1H258z M259 969h737v1H259z M260 970h735v1H260z M261 971h733v1H261z M262 972h731v1H262z M263 973h729v1H263z M264 974h727v1H264z M265 975h725v1H265z M266 976h723v1H266z M266 977h723v1H266z M267 978h721v1H267z M268 979h719v1H268z M269 980h717v1H269z M270 981h715v1H270z M271 982h713v1H271z M272 983h711v1H272z M273 984h709v1H273z M274 985h707v1H274z M275 986h705v1H275z M276 987h703v1H276z M277 988h701v1H277z M278 989h699v1H278z M280 990h695v1H280z M281 991h693v1H281z M282 992h691v1H282z M283 993h689v1H283z M284 994h687v1H284z M285 995h685v1H285z M286 996h683v1H286z M287 997h681v1H287z M288 998h679v1H288z M289 999h677v1H289z M290 1000h675v1H290z M291 1001h673v1H291z M292 1002h671v1H292z M294 1003h667v1H294z M295 1004h665v1H295z M296 1005h663v1H296z M297 1006h661v1H297z M298 1007h659v1H298z M299 1008h657v1H299z M300 1009h655v1H300z M302 1010h651v1H302z M303 1011h649v1H303z M304 1012h647v1H304z M305 1013h645v1H305z M306 1014h643v1H306z M307 1015h641v1H307z M309 1016h637v1H309z M310 1017h635v1H310z M311 1018h633v1H311z M312 1019h631v1H312z M314 1020h627v1H314z M315 1021h625v1H315z M316 1022h623v1H316z M317 1023h621v1H317z M319 1024h617v1H319z M320 1025h615v1H320z M321 1026h613v1H321z M323 1027h609v1H323z M324 1028h607v1H324z M325 1029h605v1H325z M326 1030h603v1H326z M328 1031h599v1H328z M329 1032h597v1H329z M331 1033h593v1H331z M332 1034h591v1H332z M333 1035h589v1H333z M335 1036h585v1H335z M336 1037h583v1H336z M337 1038h581v1H337z M339 1039h577v1H339z M340 1040h575v1H340z M342 1041h571v1H342z M343 1042h569v1H343z M345 1043h565v1H345z M346 1044h563v1H346z M348 1045h559v1H348z M349 1046h557v1H349z M351 1047h553v1H351z M352 1048h551v1H352z M354 1049h547v1H354z M355 1050h545v1H355z M357 1051h541v1H357z M358 1052h539v1H358z M360 1053h535v1H360z M361 1054h533v1H361z M363 1055h529v1H363z M365 1056h525v1H365z M366 1057h523v1H366z M368 1058h519v1H368z M370 1059h515v1H370z M371 1060h513v1H371z M373 1061h509v1H373z M375 1062h505v1H375z M376 1063h503v1H376z M378 1064h499v1H378z M380 1065h495v1H380z M382 1066h491v1H382z M383 1067h489v1H383z M385 1068h485v1H385z M387 1069h481v1H387z M389 1070h477v1H389z M391 1071h473v1H391z M393 1072h469v1H393z
    M395 1073h465v1H395z M396 1074h463v1H396z M398 1075h459v1H398z M400 1076h455v1H400z M402 1077h451v1H402z M404 1078h447v1H404z M406 1079h443v1H406z M408 1080h439v1H408z M410 1081h435v1H410z M413 1082h429v1H413z M415 1083h425v1H415z M417 1084h421v1H417z M419 1085h417v1H419z M421 1086h413v1H421z M423 1087h409v1H423z M426 1088h403v1H426z M428 1089h399v1H428z M430 1090h395v1H430z M433 1091h389v1H433z M435 1092h385v1H435z M437 1093h381v1H437z M440 1094h375v1H440z M442 1095h371v1H442z M445 1096h365v1H445z M447 1097h361v1H447z M450 1098h355v1H450z M453 1099h349v1H453z M455 1100h345v1H455z M458 1101h339v1H458z M461 1102h333v1H461z M464 1103h327v1H464z M467 1104h321v1H467z M470 1105h315v1H470z M473 1106h309v1H473z M476 1107h303v1H476z M479 1108h297v1H479z M482 1109h291v1H482z M486 1110h283v1H486z M489 1111h277v1H489z M493 1112h269v1H493z M496 1113h263v1H496z M500 1114h255v1H500z M504 1115h247v1H504z M508 1116h239v1H508z M512 1117h231v1H512z M516 1118h223v1H516z M521 1119h213v1H521z M526 1120h203v1H526z M530 1121h195v1H530z M536 1122h183v1H536z M541 1123h173v1H541z M547 1124h161v1H547z M554 1125h147v1H554z M561 1126h133v1H561z M568 1127h119v1H568z M578 1128h99v1H578z M589 1129h77v1H589z M605 1130h45v1H605z
  "/>
</svg>
